<svg width="89" height="88" viewBox="0 0 89 88" fill="none" xmlns="http://www.w3.org/2000/svg">
<path fill-rule="evenodd" clip-rule="evenodd" d="M7.269 0.400254C4.44328 1.22897 1.55495 4.30061 0.823023 7.25644C-1.60575 17.0659 10.2348 23.499 17.1642 16.1349C23.6786 9.21211 16.4452 -2.29033 7.269 0.400254ZM80.3227 13.8907C75.7627 15.7617 75.1837 22.4386 79.3926 24.6201C82.0673 26.0071 84.1585 25.791 86.4047 23.8962C89.6551 21.1551 89.0309 16.254 85.1764 14.2562C83.0871 13.1739 82.2287 13.1092 80.3227 13.8907ZM52.7303 16.3348C53.8837 16.4785 55.7723 16.4785 56.9256 16.3348C58.079 16.1919 57.1354 16.0741 54.828 16.0741C52.5205 16.0741 51.5769 16.1919 52.7303 16.3348ZM37.0785 17.5388C16.8634 20.6673 4.48394 26.9232 4.48394 34.009C4.48394 40.118 10.8099 47.0732 27.6996 59.535C44.8011 72.1528 47.0531 74.3588 47.5752 79.0038C47.8618 81.5475 47.6294 82.3005 45.7402 84.9581L43.578 88L47.5759 84.5512C53.643 79.3175 54.828 77.6743 54.828 74.4914C54.828 69.7992 52.2946 66.8518 37.9098 54.8079C30.6654 48.7416 23.6618 42.3945 22.347 40.7022C19.2121 36.6705 18.2221 33.4255 19.3161 30.7769C21.6409 25.1519 32.716 19.4356 45.0057 17.5174C50.6313 16.6395 50.6313 16.6395 46.76 16.6395C44.6301 16.6395 40.2734 17.0439 37.0785 17.5388ZM48.411 18.5338C38.2306 19.7157 29.8547 22.9245 24.8294 27.5682C18.8049 33.1344 20.5495 37.2805 33.7248 48.7118C42.2316 56.092 42.8939 56.4427 38.4842 51.2323C27.8888 38.7135 27.9701 29.2275 38.7192 23.7836C42.433 21.9023 46.6051 20.6583 56.1189 18.5933L59.0233 17.9632L56.1189 17.9696C54.5214 17.9729 51.0528 18.2265 48.411 18.5338ZM62.0749 24.6705C67.7496 25.8913 71.5183 27.55 74.4189 30.1028C76.2816 31.7422 76.7728 32.6453 76.7728 34.4289C76.7728 37.1505 73.5792 40.6756 63.2503 49.3549C59.5403 52.4718 55.9452 55.9827 55.2611 57.1562C53.5474 60.0978 54.3691 62.6099 58.0229 65.5974C60.3045 67.4625 60.6692 67.6165 59.7972 66.3453C57.2071 62.5685 58.811 60.2938 69.9402 51.9627C84.245 41.2533 87.6833 36.7598 85.1719 32.0559C83.6596 29.2243 75.884 26.1734 66.1231 24.5826C58.7858 23.3864 56.3544 23.4394 62.0749 24.6705ZM58.6038 26.185C64.2849 27.7435 67.4327 29.5749 68.7204 32.0708C70.576 35.6665 69.7847 38.7905 65.6158 44.3321L62.9385 47.8902L65.7733 45.6434C70.5192 41.8822 74.6455 37.419 75.1173 35.5371C76.2661 30.9477 68.0059 25.9152 58.1442 25.1965L53.8598 24.884L58.6038 26.185ZM60.9964 60.6497C59.5332 62.7425 59.7675 65.0883 61.6599 67.2982C62.8391 68.6749 63.1928 68.8631 62.8779 67.9451C61.5076 63.9568 61.3023 62.4772 61.9007 60.8994C62.6849 58.8324 62.3338 58.7354 60.9964 60.6497ZM43.1043 74.5335C44.1602 76.5202 44.0389 82.1032 42.879 84.8857C42.342 86.1737 42.0161 87.3427 42.1555 87.4825C42.7835 88.1113 46.4373 82.0683 46.4373 80.4005C46.4373 78.2734 45.0871 75.3816 43.4696 74.0437C42.4466 73.1976 42.4156 73.2383 43.1043 74.5335Z" fill="#F8FAFC"/>
</svg>
