<svg width="394" height="88" viewBox="0 0 394 88" fill="none" xmlns="http://www.w3.org/2000/svg">
<path fill-rule="evenodd" clip-rule="evenodd" d="M7.269 0.400254C4.44328 1.22897 1.55495 4.30061 0.823023 7.25644C-1.60575 17.0659 10.2348 23.499 17.1642 16.1349C23.6786 9.21211 16.4452 -2.29033 7.269 0.400254ZM80.3227 13.8907C75.7627 15.7617 75.1837 22.4386 79.3926 24.6201C82.0673 26.0071 84.1585 25.791 86.4047 23.8962C89.6551 21.1551 89.0309 16.254 85.1764 14.2562C83.0871 13.1739 82.2287 13.1092 80.3227 13.8907ZM52.7303 16.3348C53.8837 16.4785 55.7723 16.4785 56.9256 16.3348C58.079 16.1919 57.1354 16.0741 54.828 16.0741C52.5205 16.0741 51.5769 16.1919 52.7303 16.3348ZM37.0785 17.5388C16.8634 20.6673 4.48394 26.9232 4.48394 34.009C4.48394 40.118 10.8099 47.0732 27.6996 59.535C44.8011 72.1528 47.0531 74.3588 47.5752 79.0038C47.8618 81.5475 47.6294 82.3005 45.7402 84.9581L43.578 88L47.5759 84.5512C53.643 79.3175 54.828 77.6743 54.828 74.4914C54.828 69.7992 52.2946 66.8518 37.9098 54.8079C30.6654 48.7416 23.6618 42.3945 22.347 40.7022C19.2121 36.6705 18.2221 33.4255 19.3161 30.7769C21.6409 25.1519 32.716 19.4356 45.0057 17.5174C50.6313 16.6395 50.6313 16.6395 46.76 16.6395C44.6301 16.6395 40.2734 17.0439 37.0785 17.5388ZM48.411 18.5338C38.2306 19.7157 29.8547 22.9245 24.8294 27.5682C18.8049 33.1344 20.5495 37.2805 33.7248 48.7118C42.2316 56.092 42.8939 56.4427 38.4842 51.2323C27.8888 38.7135 27.9701 29.2275 38.7192 23.7836C42.433 21.9023 46.6051 20.6583 56.1189 18.5933L59.0233 17.9632L56.1189 17.9696C54.5214 17.9729 51.0528 18.2265 48.411 18.5338ZM62.0749 24.6705C67.7496 25.8913 71.5183 27.55 74.4189 30.1028C76.2816 31.7422 76.7728 32.6453 76.7728 34.4289C76.7728 37.1505 73.5792 40.6756 63.2503 49.3549C59.5403 52.4718 55.9452 55.9827 55.2611 57.1562C53.5474 60.0978 54.3691 62.6099 58.0229 65.5974C60.3045 67.4625 60.6692 67.6165 59.7972 66.3453C57.2071 62.5685 58.811 60.2938 69.9402 51.9627C84.245 41.2533 87.6833 36.7598 85.1719 32.0559C83.6596 29.2243 75.884 26.1734 66.1231 24.5826C58.7858 23.3864 56.3544 23.4394 62.0749 24.6705ZM58.6038 26.185C64.2849 27.7435 67.4327 29.5749 68.7204 32.0708C70.576 35.6665 69.7847 38.7905 65.6158 44.3321L62.9385 47.8902L65.7733 45.6434C70.5192 41.8822 74.6455 37.419 75.1173 35.5371C76.2661 30.9477 68.0059 25.9152 58.1442 25.1965L53.8598 24.884L58.6038 26.185ZM60.9964 60.6497C59.5332 62.7425 59.7675 65.0883 61.6599 67.2982C62.8391 68.6749 63.1928 68.8631 62.8779 67.9451C61.5076 63.9568 61.3023 62.4772 61.9007 60.8994C62.6849 58.8324 62.3338 58.7354 60.9964 60.6497ZM43.1043 74.5335C44.1602 76.5202 44.0389 82.1032 42.879 84.8857C42.342 86.1737 42.0161 87.3427 42.1555 87.4825C42.7835 88.1113 46.4373 82.0683 46.4373 80.4005C46.4373 78.2734 45.0871 75.3816 43.4696 74.0437C42.4466 73.1976 42.4156 73.2383 43.1043 74.5335Z" fill="#F8FAFC"/>
<path d="M130.644 68.5H122.004V31.348H130.644V68.5ZM136.116 15.22L125.748 27.388H121.14L128.34 15.22H136.116ZM180.093 59.716C180.093 63.172 179.421 65.5 178.077 66.7C176.781 67.9 174.381 68.5 170.877 68.5H148.701C145.197 68.5 142.773 67.9 141.429 66.7C140.133 65.5 139.485 63.172 139.485 59.716V40.132C139.485 36.676 140.133 34.348 141.429 33.148C142.773 31.948 145.197 31.348 148.701 31.348H170.877C175.293 31.348 178.029 32.38 179.085 34.444C179.757 35.644 180.093 38.716 180.093 43.66L171.453 45.028V37.972H148.125V61.516H171.453V53.524L180.093 55.324V59.716ZM233.573 59.716C233.573 63.172 232.901 65.5 231.557 66.7C230.261 67.9 227.861 68.5 224.357 68.5H196.997C193.493 68.5 191.069 67.9 189.725 66.7C188.429 65.5 187.781 63.172 187.781 59.716V40.132C187.781 36.676 188.429 34.348 189.725 33.148C191.069 31.948 193.493 31.348 196.997 31.348H224.357C227.861 31.348 230.261 31.948 231.557 33.148C232.901 34.348 233.573 36.676 233.573 40.132V59.716ZM224.933 61.516V37.972H196.421V61.516H224.933ZM286.056 68.5H280.152L252.864 45.532C251.712 44.572 250.68 43.564 249.768 42.508C250.008 44.908 250.128 46.804 250.128 48.196V68.5H242.352V31.348H248.256L274.392 53.236C276.264 54.82 277.68 56.164 278.64 57.268C278.4 53.812 278.28 51.676 278.28 50.86V31.348H286.056V68.5ZM334.018 68.5H295.642V31.348H333.658V37.684H304.282V45.964H321.418V52.3H304.282V61.516H334.018V68.5ZM130.061 76.888C130.061 77.688 129.597 78.088 128.669 78.088H124.781V80.5H123.365V74.308H128.669C129.597 74.308 130.061 74.708 130.061 75.508V76.888ZM128.669 76.528V75.868C128.669 75.66 128.609 75.524 128.489 75.46C128.401 75.404 128.245 75.376 128.021 75.376H124.781V77.02H128.021C128.245 77.02 128.401 76.992 128.489 76.936C128.609 76.872 128.669 76.736 128.669 76.528ZM138.271 79.3C138.271 79.78 138.175 80.1 137.983 80.26C137.791 80.42 137.447 80.5 136.951 80.5H133.027C132.531 80.5 132.187 80.424 131.995 80.272C131.803 80.112 131.707 79.788 131.707 79.3V76.624C131.707 76.136 131.803 75.816 131.995 75.664C132.187 75.504 132.531 75.424 133.027 75.424H136.951C137.447 75.424 137.791 75.504 137.983 75.664C138.175 75.816 138.271 76.136 138.271 76.624V79.3ZM137.035 79.528V76.36H132.943V79.528H137.035ZM136.627 72.736L134.899 74.764H134.131L135.331 72.736H136.627ZM146.225 79.3C146.225 79.78 146.129 80.1 145.937 80.26C145.745 80.42 145.401 80.5 144.905 80.5H141.605C141.061 80.5 140.701 80.412 140.525 80.236C140.357 80.052 140.273 79.692 140.273 79.156L141.377 78.952V79.552H145.109V78.388H141.821C141.325 78.388 140.985 78.312 140.801 78.16C140.593 77.992 140.489 77.668 140.489 77.188V76.624C140.489 76.144 140.593 75.82 140.801 75.652C140.985 75.5 141.325 75.424 141.821 75.424H144.833C145.345 75.424 145.693 75.504 145.877 75.664C146.069 75.824 146.165 76.152 146.165 76.648L145.097 76.876V76.336H141.605V77.404H144.905C145.401 77.404 145.745 77.484 145.937 77.644C146.129 77.796 146.225 78.116 146.225 78.604V79.3ZM159.195 79.3C159.195 79.78 159.099 80.1 158.907 80.26C158.715 80.42 158.371 80.5 157.875 80.5H154.203C153.707 80.5 153.363 80.42 153.171 80.26C152.979 80.1 152.883 79.78 152.883 79.3V76.624C152.883 76.144 152.979 75.824 153.171 75.664C153.363 75.504 153.707 75.424 154.203 75.424H157.875C158.395 75.424 158.743 75.508 158.919 75.676C159.103 75.844 159.195 76.184 159.195 76.696L157.983 76.9V76.36H154.119V79.528H157.983V78.448H155.967V77.548H159.195V79.3ZM167.6 80.5H165.824L163.7 78.58H162.536V80.5H161.312V75.424H165.884C166.676 75.424 167.072 75.752 167.072 76.408V77.608C167.072 78.104 166.86 78.408 166.436 78.52C166.292 78.56 165.876 78.58 165.188 78.58L167.6 80.5ZM165.92 77.296V76.708C165.92 76.436 165.732 76.3 165.356 76.3H162.536V77.704H165.356C165.732 77.704 165.92 77.568 165.92 77.296ZM175.163 80.5H173.771L173.135 79.384H169.775L169.139 80.5H167.903L170.915 75.424H172.103L175.163 80.5ZM172.631 78.46L171.443 76.348L170.303 78.46H172.631ZM182.897 77.944C182.897 79.648 181.777 80.5 179.537 80.5H176.429V75.424H179.849C180.753 75.424 181.469 75.612 181.997 75.988C182.597 76.428 182.897 77.08 182.897 77.944ZM181.625 77.884C181.625 76.852 181.037 76.336 179.861 76.336H177.677V79.552H179.273C180.033 79.552 180.581 79.464 180.917 79.288C181.389 79.032 181.625 78.564 181.625 77.884ZM190.773 79.3C190.773 79.78 190.673 80.1 190.473 80.26C190.281 80.42 189.937 80.5 189.441 80.5H186.081C185.585 80.5 185.241 80.42 185.049 80.26C184.857 80.1 184.761 79.78 184.761 79.3V75.424H185.997V79.552H189.525V75.424H190.773V79.3ZM199.304 80.5H197.912L197.276 79.384H193.916L193.28 80.5H192.044L195.056 75.424H196.244L199.304 80.5ZM196.772 78.46L195.584 76.348L194.444 78.46H196.772ZM206.269 79.3C206.269 79.78 206.169 80.1 205.969 80.26C205.777 80.42 205.433 80.5 204.937 80.5H201.769C201.273 80.5 200.929 80.42 200.737 80.26C200.545 80.1 200.449 79.78 200.449 79.3V76.624C200.449 76.144 200.545 75.824 200.737 75.664C200.929 75.504 201.273 75.424 201.769 75.424H204.937C205.569 75.424 205.961 75.556 206.113 75.82C206.217 75.996 206.269 76.428 206.269 77.116L205.021 77.296V76.36H201.685V79.528H205.021V78.448L206.269 78.7V79.3ZM205.081 82.18C205.081 82.924 204.593 83.296 203.617 83.296C203.177 83.296 202.645 83.212 202.021 83.044V82.348C202.669 82.516 203.169 82.6 203.521 82.6C203.945 82.6 204.157 82.452 204.157 82.156C204.157 81.924 204.021 81.78 203.749 81.724C203.637 81.7 203.413 81.692 203.077 81.7V80.5H203.605V81.052C204.589 81.052 205.081 81.428 205.081 82.18ZM214.784 80.5H213.392L212.756 79.384H209.396L208.76 80.5H207.524L210.536 75.424H211.724L214.784 80.5ZM212.252 78.46L211.064 76.348L209.924 78.46H212.252ZM212.804 73.108C212.628 73.988 212.24 74.428 211.64 74.428C211.496 74.428 211.284 74.384 211.004 74.296C210.724 74.208 210.512 74.164 210.368 74.164C210.112 74.164 209.944 74.296 209.864 74.56H209.276C209.428 73.704 209.804 73.276 210.404 73.276C210.556 73.276 210.772 73.32 211.052 73.408C211.34 73.496 211.56 73.54 211.712 73.54C211.976 73.54 212.144 73.396 212.216 73.108H212.804ZM222.494 79.3C222.494 79.78 222.398 80.1 222.206 80.26C222.014 80.42 221.67 80.5 221.174 80.5H217.25C216.754 80.5 216.41 80.424 216.218 80.272C216.026 80.112 215.93 79.788 215.93 79.3V76.624C215.93 76.136 216.026 75.816 216.218 75.664C216.41 75.504 216.754 75.424 217.25 75.424H221.174C221.67 75.424 222.014 75.504 222.206 75.664C222.398 75.816 222.494 76.136 222.494 76.624V79.3ZM221.258 79.528V76.36H217.166V79.528H221.258ZM234.777 80.5H229.269V75.424H234.717V76.324H230.517V77.428H232.965V78.304H230.517V79.552H234.777V80.5ZM243.517 80.5H242.365V77.008L240.097 79.888H239.857L237.565 77.092V80.5H236.569V75.424H237.565L240.049 78.436L242.521 75.424H243.517V80.5ZM256.853 79.3C256.853 79.78 256.757 80.1 256.565 80.26C256.373 80.42 256.029 80.5 255.533 80.5H251.609C251.113 80.5 250.769 80.424 250.577 80.272C250.385 80.112 250.289 79.788 250.289 79.3V76.624C250.289 76.136 250.385 75.816 250.577 75.664C250.769 75.504 251.113 75.424 251.609 75.424H255.533C256.029 75.424 256.373 75.504 256.565 75.664C256.757 75.816 256.853 76.136 256.853 76.624V79.3ZM255.617 79.528V76.36H251.525V79.528H255.617ZM265.455 77.944C265.455 79.648 264.335 80.5 262.095 80.5H258.987V75.424H262.407C263.311 75.424 264.027 75.612 264.555 75.988C265.155 76.428 265.455 77.08 265.455 77.944ZM264.183 77.884C264.183 76.852 263.595 76.336 262.419 76.336H260.235V79.552H261.831C262.591 79.552 263.139 79.464 263.475 79.288C263.947 79.032 264.183 78.564 264.183 77.884ZM273.763 79.3C273.763 79.78 273.667 80.1 273.475 80.26C273.283 80.42 272.939 80.5 272.443 80.5H268.519C268.023 80.5 267.679 80.424 267.487 80.272C267.295 80.112 267.199 79.788 267.199 79.3V76.624C267.199 76.136 267.295 75.816 267.487 75.664C267.679 75.504 268.023 75.424 268.519 75.424H272.443C272.939 75.424 273.283 75.504 273.475 75.664C273.667 75.816 273.763 76.136 273.763 76.624V79.3ZM272.527 79.528V76.36H268.435V79.528H272.527ZM282.174 80.5H281.322L277.026 77.08V80.5H275.898V75.424H276.75L281.058 78.796V75.424H282.174V80.5ZM289.924 76.336H287.465V80.5H286.229V76.336H283.781V75.424H289.924V76.336ZM297.963 79.3C297.963 79.78 297.867 80.1 297.675 80.26C297.483 80.42 297.139 80.5 296.643 80.5H292.719C292.223 80.5 291.879 80.424 291.687 80.272C291.495 80.112 291.399 79.788 291.399 79.3V76.624C291.399 76.136 291.495 75.816 291.687 75.664C291.879 75.504 292.223 75.424 292.719 75.424H296.643C297.139 75.424 297.483 75.504 297.675 75.664C297.867 75.816 297.963 76.136 297.963 76.624V79.3ZM296.727 79.528V76.36H292.635V79.528H296.727ZM305.329 80.5H300.097V75.424H301.345V79.552H305.329V80.5ZM313.162 79.3C313.162 79.78 313.066 80.1 312.874 80.26C312.682 80.42 312.338 80.5 311.842 80.5H307.918C307.422 80.5 307.078 80.424 306.886 80.272C306.694 80.112 306.598 79.788 306.598 79.3V76.624C306.598 76.136 306.694 75.816 306.886 75.664C307.078 75.504 307.422 75.424 307.918 75.424H311.842C312.338 75.424 312.682 75.504 312.874 75.664C313.066 75.816 313.162 76.136 313.162 76.624V79.3ZM311.926 79.528V76.36H307.834V79.528H311.926ZM321.488 79.3C321.488 79.78 321.392 80.1 321.2 80.26C321.008 80.42 320.664 80.5 320.168 80.5H316.496C316 80.5 315.656 80.42 315.464 80.26C315.272 80.1 315.176 79.78 315.176 79.3V76.624C315.176 76.144 315.272 75.824 315.464 75.664C315.656 75.504 316 75.424 316.496 75.424H320.168C320.688 75.424 321.036 75.508 321.212 75.676C321.396 75.844 321.488 76.184 321.488 76.696L320.276 76.9V76.36H316.412V79.528H320.276V78.448H318.26V77.548H321.488V79.3ZM324.841 80.5H323.605V75.424H324.841V80.5ZM333.589 80.5H332.197L331.561 79.384H328.201L327.565 80.5H326.329L329.341 75.424H330.529L333.589 80.5ZM331.057 78.46L329.869 76.348L328.729 78.46H331.057Z" fill="#F8FAFC"/>
</svg>
